<svg id="Layer_1" enable-background="new 0 0 128 128" height="512" viewBox="0 0 128 128" width="512" xmlns="http://www.w3.org/2000/svg"><path d="m105.9 42-24.2-24.2c-.3-.3-.8-.5-1.2-.5h-34.9c-4.8 0-8.7 3.9-8.7 8.7v33.7h-10.3c-2.8 0-5 2.2-5 5v29.3c0 2.8 2.2 5 5 5h10.3v3.2c0 4.8 3.9 8.7 8.7 8.7h52.2c4.8 0 8.7-3.9 8.7-8.7v-59c-.1-.4-.3-.9-.6-1.2zm-5.5-.5h-13.1c-2.8 0-5.2-2.3-5.2-5.2v-13.1zm-75.3 52.4v-29.3c0-.8.7-1.5 1.5-1.5h50.6c.8 0 1.5.7 1.5 1.5v29.3c0 .8-.7 1.5-1.5 1.5h-50.6c-.8 0-1.5-.7-1.5-1.5zm72.7 13.3h-52.2c-2.8 0-5.2-2.3-5.2-5.2v-3.2h36.7c2.8 0 5-2.2 5-5v-29.2c0-2.8-2.2-5-5-5h-36.7v-33.7c0-2.8 2.3-5.2 5.2-5.2h33.1v15.6c0 4.8 3.9 8.7 8.7 8.7h15.6v57.1c-.1 2.8-2.4 5.1-5.2 5.1z"/><path d="m42.3 79.2c0-4.2-3.4-7.2-8.3-7.2h-5.2v14.4h5.2c4.9.1 8.3-2.9 8.3-7.2zm-7.9 4.4h-2.5v-8.8h2.5c2.4-.1 4.5 1.7 4.7 4.1.2 2.7-2 4.9-4.7 4.7z"/><path d="m52 86.7c4.1-.1 7.4-3.5 7.3-7.7-.1-4.1-3.5-7.4-7.7-7.3-4 .1-7.3 3.4-7.3 7.5.2 4.2 3.6 7.5 7.7 7.5zm0-12.1c2.6-.1 4.7 1.9 4.8 4.5s-1.9 4.7-4.5 4.8-4.7-1.9-4.8-4.5c0-.1 0-.1 0-.2.1-2.5 2-4.5 4.5-4.6z"/><path d="m69.3 86.7c2.1 0 4.1-.9 5.6-2.4l-2.2-2c-.8 1-2.1 1.6-3.4 1.6-2.6-.1-4.6-2.3-4.5-4.8.1-2.4 2-4.4 4.5-4.5 1.3 0 2.5.6 3.4 1.6l2.2-2c-2.7-3.2-7.5-3.5-10.7-.8s-3.5 7.5-.8 10.7c1.5 1.7 3.7 2.6 5.9 2.6z"/></svg>