<svg id="Layer_1" enable-background="new 0 0 128 128" height="512" viewBox="0 0 128 128" width="512" xmlns="http://www.w3.org/2000/svg"><path d="m105.9 42-24.2-24.2c-.3-.3-.8-.5-1.2-.5h-34.9c-4.8 0-8.7 3.9-8.7 8.7v33.7h-10.3c-2.8 0-5 2.2-5 5v29.3c0 2.8 2.2 5 5 5h10.3v3.2c0 4.8 3.9 8.7 8.7 8.7h52.2c4.8 0 8.7-3.9 8.7-8.7v-59c-.1-.4-.3-.9-.6-1.2zm-5.5-.5h-13.1c-2.8 0-5.2-2.3-5.2-5.2v-13.1zm-75.3 52.4v-29.3c0-.8.7-1.5 1.5-1.5h50.6c.8 0 1.5.7 1.5 1.5v29.3c0 .8-.7 1.5-1.5 1.5h-50.6c-.8 0-1.5-.7-1.5-1.5zm72.7 13.3h-52.2c-2.8 0-5.2-2.3-5.2-5.2v-3.2h36.7c2.8 0 5-2.2 5-5v-29.2c0-2.8-2.2-5-5-5h-36.7v-33.7c0-2.8 2.3-5.2 5.2-5.2h33.1v15.6c0 4.8 3.9 8.7 8.7 8.7h15.6v57.1c-.1 2.8-2.4 5.1-5.2 5.1z"/><path d="m42.3 76.9c0-2.9-2.3-4.9-5.4-4.9h-6.5v14.4h3.1v-4.7h3.4c3.1.1 5.4-1.9 5.4-4.8zm-5.8 2h-3.1v-4.1h3.1c1.5 0 2.6.8 2.6 2s-1.1 2.1-2.6 2.1z"/><path d="m58.8 79.2c0-4.2-3.4-7.2-8.3-7.2h-5.2v14.4h5.2c4.9.1 8.3-2.9 8.3-7.2zm-10.3-4.4h2.5c2.4-.2 4.5 1.7 4.7 4.1.2 2.7-2 4.9-4.7 4.7h-2.5z"/><path d="m65.4 80.8h7.2v-2.8h-7.2v-3.2h8v-2.8h-11.1v14.5h3.1z"/></svg>