<svg id="Layer_1" enable-background="new 0 0 128 128" height="512" viewBox="0 0 128 128" width="512" xmlns="http://www.w3.org/2000/svg"><path d="m105.9 42-24.2-24.2c-.3-.3-.8-.5-1.2-.5h-34.9c-4.8 0-8.7 3.9-8.7 8.7v33.7h-10.3c-2.8 0-5 2.2-5 5v29.3c0 2.8 2.2 5 5 5h10.3v3.2c0 4.8 3.9 8.7 8.7 8.7h52.2c4.8 0 8.7-3.9 8.7-8.7v-58.9c-.1-.5-.3-1-.6-1.3zm-5.5-.5h-13.1c-2.8 0-5.2-2.3-5.2-5.2v-13.1zm-75.3 52.4v-29.3c0-.8.7-1.5 1.5-1.5h50.6c.8 0 1.5.7 1.5 1.5v29.3c0 .8-.7 1.5-1.5 1.5h-50.6c-.8 0-1.5-.7-1.5-1.5zm72.7 13.4h-52.2c-2.8 0-5.2-2.3-5.2-5.2v-3.2h36.7c2.8 0 5-2.2 5-5v-29.3c0-2.8-2.2-5-5-5h-36.7v-33.7c0-2.8 2.3-5.2 5.2-5.2h33.1v15.6c0 4.8 3.9 8.7 8.7 8.7h15.6v57.1c-.1 2.8-2.4 5.1-5.2 5.2z"/><path d="m38.7 86.5v-11.7h4.5v-2.8h-12.1v2.8h4.5v11.7z"/><path d="m48.4 86.5 3.5-4.8 3.4 4.8h3.7l-5.3-7.3 5.3-7.2h-3.6l-3.5 4.8-3.5-4.8h-3.6l5.2 7.3-5.2 7.2z"/><path d="m65 86.5h3.1v-11.7h4.5v-2.8h-12.1v2.8h4.5z"/></svg>